<?xml version="1.0" encoding="iso-8859-1"?>
<!-- Generator: Adobe Illustrator 19.0.0, SVG Export Plug-In . SVG Version: 6.00 Build 0)  -->
<svg id="Capa_1" style="enable-background:new 0 0 512 512;" version="1.1" viewBox="0 0 512 512" x="0px"
     xml:space="preserve" xmlns="http://www.w3.org/2000/svg" y="0px">
<g>
	<path d="M278.4,331.2c-2.653-3.536-7.669-4.25-11.2-1.601l-32,24c-3.232,2.424-4.146,7.038-2.067,10.506
		c2.405,4.013,7.918,5.107,11.667,2.294l3.2-2.4v44c0,4.418,3.582,8,8,8c4.418,0,8-3.582,8-8v-56l12.8-9.6
		C280.335,339.749,281.051,334.734,278.4,331.2z" style="fill:#B0B0BC;"/>
	<path d="M278.4,275.2c-2.653-3.536-7.669-4.251-11.2-1.601L264,276v-36c0-4.418-3.582-8-8-8s-8,3.582-8,8v48
		l-12.8,9.6c-3.232,2.424-4.146,7.038-2.067,10.506c2.405,4.013,7.918,5.107,11.667,2.294l32-24
		C280.335,283.749,281.051,278.734,278.4,275.2z" style="fill:#B0B0BC;"/>
</g>
<circle cx="256" cy="120" r="120" style="fill:#8ED25E;"/>
<path d="M278.222,231.111c-66.274,0-120-53.726-120-120c0-46.281,26.204-86.437,64.582-106.456
	C172.677,19.055,136,65.243,136,120c0,66.274,53.726,120,120,120c19.993,0,38.84-4.896,55.418-13.544
	C300.875,229.485,289.739,231.111,278.222,231.111z" style="fill:#80CD4A;"/>
<g>
	<path d="M256,0c-23.937,0-46.233,7.014-64.955,19.092c-2.115,1.364-2.803,4.143-1.581,6.343l11.529,20.753
		c0.642,1.156,1.735,1.994,3.018,2.315l21.052,5.263c0.618,0.154,1.199,0.431,1.708,0.813l22.956,17.217
		c0.181,0.136,0.352,0.284,0.512,0.444l23.028,23.028c0.482,0.482,0.856,1.062,1.095,1.701l16.905,45.08
		c0.467,1.244,0.394,2.626-0.2,3.815l-10.721,21.443c-0.23,0.459-0.532,0.879-0.895,1.242l-22.266,22.266
		c-0.767,0.767-1.251,1.773-1.37,2.851l-4.559,41.027c-0.312,2.807,1.866,5.305,4.69,5.307c0.018,0,0.036,0,0.053,0
		c29.994,0,57.413-11.01,78.449-29.202c1.983-1.715,2.186-4.723,0.48-6.713l-29.477-34.39c-0.92-1.074-1.318-2.5-1.085-3.895
		l5.519-33.112c0.076-0.456,0.085-0.92,0.028-1.378l-5.674-45.393c-0.154-1.229,0.176-2.469,0.919-3.46l13.141-17.521
		c1.874-2.499,5.603-2.557,7.554-0.118L342.88,86.1c1.7,2.125,4.83,2.403,6.878,0.611l13.733-12.016
		c1.612-1.41,2.083-3.718,1.172-5.657C345.5,28.247,304.052,0,256,0z" style="fill:#91E1F9;"/>
	<path d="M199.369,147.658l7.804-1.951c3.733-0.933,5.95-4.773,4.893-8.472l-8.987-31.455
		c-0.668-2.339-2.534-4.143-4.893-4.733l-19.933-4.983c-0.169-0.042-0.336-0.091-0.502-0.146l-29.439-9.813
		c-3.744-1.248-7.792,0.931-8.747,4.76C137.238,100.192,136,109.951,136,120c0,38.942,18.549,73.551,47.294,95.474
		c3.012,2.297,7.32,1.707,9.592-1.323l18.224-24.299c1.731-2.308,1.819-5.458,0.218-7.859l-15.972-23.958
		C192.746,154.12,194.803,148.799,199.369,147.658z" style="fill:#91E1F9;"/>
</g>
<g>
	<path d="M222.785,4.665c-12.83,3.69-24.779,9.459-35.457,16.924l3.848,6.926
		C200.279,18.923,210.954,10.839,222.785,4.665z" style="fill:#6CD6F7;"/>
	<path d="M251.975,228.224l-1.295,11.652c1.764,0.077,3.536,0.124,5.32,0.124
		c19.988,0,38.83-4.893,55.404-13.539c-10.539,3.026-21.67,4.651-33.182,4.651C269.205,231.111,260.424,230.109,251.975,228.224z" style="fill:#6CD6F7;"/>
	<path d="M158.222,111.111c0-7.195,0.635-14.241,1.849-21.087l-18.524-6.175
		C137.946,95.258,136,107.401,136,120c0,41.411,20.976,77.922,52.883,99.489l12.29-16.387
		C174.92,181.089,158.222,148.053,158.222,111.111z" style="fill:#6CD6F7;"/>
</g>
<g>
	<path d="M244,512c-4.418,0-8-3.582-8-8v-32c0-4.418,3.582-8,8-8s8,3.582,8,8v32
		C252,508.418,248.418,512,244,512z" style="fill:#626178;"/>
	<path d="M268,512c-4.418,0-8-3.582-8-8v-32c0-4.418,3.582-8,8-8s8,3.582,8,8v32
		C276,508.418,272.418,512,268,512z" style="fill:#626178;"/>
</g>
<path d="M220,432v40c0,4.418,3.582,8,8,8h56c4.418,0,8-3.582,8-8v-40c0-17.645-14.355-32-32-32h-8
	C234.355,400,220,414.355,220,432z" style="fill:#F7A541;"/>
<path d="M276,432v40c0,4.418-3.582,8-8,8h16c4.418,0,8-3.582,8-8v-40c0-17.645-14.355-32-32-32h-8
	c-1.355,0-2.688,0.094-4,0.259C263.762,402.235,276,415.711,276,432z" style="fill:#F58E11;"/>
<g>
</g>
<g>
</g>
<g>
</g>
<g>
</g>
<g>
</g>
<g>
</g>
<g>
</g>
<g>
</g>
<g>
</g>
<g>
</g>
<g>
</g>
<g>
</g>
<g>
</g>
<g>
</g>
<g>
</g>
</svg>
